<svg width="84" height="84" viewBox="0 0 84 84" fill="none" xmlns="http://www.w3.org/2000/svg">
<mask id="mask0_5_2" style="mask-type:alpha" maskUnits="userSpaceOnUse" x="18" y="24" width="48" height="36">
<path d="M58.1042 27.2534C54.2735 25.1804 48.5247 24.616 48.5247 24.616L47.3534 26.9243C47.3534 26.9243 43.7595 26.4991 42.1067 26.4991C40.4565 26.4991 36.8625 26.9243 36.8625 26.9243L35.6886 24.616C35.6886 24.616 29.9425 25.1804 26.1117 27.2534C26.1117 27.2534 17.1063 38.9318 19.117 53.6248C19.117 53.6248 24.0985 57.2974 30.8049 59.3678L33.3896 55.4143C33.3896 55.4143 31.2837 54.7536 29.3684 53.6248L30.4213 52.7769C30.4213 52.7769 35.9769 55.4143 42.1067 55.4143C48.239 55.4143 53.7946 52.7769 53.7946 52.7769L54.8476 53.6248C52.9322 54.7536 50.8237 55.4143 50.8237 55.4143L53.411 59.3678C60.1174 57.2974 65.099 53.6248 65.099 53.6248C67.1096 38.9318 58.1042 27.2534 58.1042 27.2534ZM34.4194 48.2563C32.1771 48.2563 30.3595 46.1682 30.3595 43.5941C30.3595 41.02 32.1771 38.9318 34.4194 38.9318C36.6592 38.9318 38.4767 41.02 38.4767 43.5941C38.4767 46.1682 36.6592 48.2563 34.4194 48.2563ZM49.7965 48.2563C47.5542 48.2563 45.7392 46.1682 45.7392 43.5941C45.7392 41.02 47.5542 38.9318 49.7965 38.9318C52.0388 38.9318 53.8564 41.02 53.8564 43.5941C53.8564 46.1682 52.0388 48.2563 49.7965 48.2563Z" fill="black" stroke="black" stroke-miterlimit="10"/>
</mask>
<g mask="url(#mask0_5_2)">
<path d="M9.08984 18.4956C9.08984 15.7342 11.3284 13.4956 14.0898 13.4956H69.4233C72.1848 13.4956 74.4233 15.7342 74.4233 18.4956V66.1837C74.4233 68.9451 72.1848 71.1837 69.4233 71.1837H14.0898C11.3284 71.1837 9.08984 68.9451 9.08984 66.1837V18.4956Z" fill="#FCCFB9"/>
</g>
<circle cx="41.992" cy="41.992" r="41.492" stroke="#FCCFB9"/>
</svg>
