<svg width="84" height="84" viewBox="0 0 84 84" fill="none" xmlns="http://www.w3.org/2000/svg">
<circle cx="41.992" cy="41.992" r="41.492" stroke="#FCCFB9"/>
<path fill-rule="evenodd" clip-rule="evenodd" d="M54.0299 19.4396H29.9701C24.1543 19.4396 19.4396 24.1543 19.4396 29.9701V54.0299C19.4396 59.8457 24.1543 64.5604 29.9701 64.5604H54.0299C59.8457 64.5604 64.5604 59.8457 64.5604 54.0299V29.9701C64.5604 24.1543 59.8457 19.4396 54.0299 19.4396ZM29.9701 14C21.1501 14 14 21.1501 14 29.9701V54.0299C14 62.8499 21.1501 70 29.9701 70H54.0299C62.8499 70 70 62.8499 70 54.0299V29.9701C70 21.1501 62.8499 14 54.0299 14H29.9701Z" fill="#FCCFB9"/>
<path fill-rule="evenodd" clip-rule="evenodd" d="M42.0005 50.7871C46.8535 50.7871 50.7876 46.853 50.7876 42.0001C50.7876 37.1471 46.8535 33.213 42.0005 33.213C37.1476 33.213 33.2135 37.1471 33.2135 42.0001C33.2135 46.853 37.1476 50.7871 42.0005 50.7871ZM42.0005 56.2154C49.8515 56.2154 56.2159 49.851 56.2159 42.0001C56.2159 34.1491 49.8515 27.7847 42.0005 27.7847C34.1496 27.7847 27.7852 34.1491 27.7852 42.0001C27.7852 49.851 34.1496 56.2154 42.0005 56.2154Z" fill="#FCCFB9"/>
<circle cx="56.2157" cy="26.9231" r="3.44615" fill="#FCCFB9"/>
</svg>
