<svg width="84" height="84" viewBox="0 0 84 84" fill="none" xmlns="http://www.w3.org/2000/svg">
<path d="M23.6209 24.7974C23.6209 24.7974 32.1725 35.2154 44.5821 35.2154C44.5821 35.2154 42.2373 29.1318 48.0638 24.7974C53.8903 20.4631 60.0951 24.4929 60.9289 25.8621C60.9289 25.8621 62.3667 26.4711 67.4367 23.5815C67.4367 23.5815 66.5276 27.1025 63.1985 29.0296C63.1985 29.0296 66.6415 28.8273 68.8928 27.6114C68.8928 27.6114 66.4524 30.7298 63.8798 32.7815C63.8798 32.7815 64.8641 47.5338 53.1338 56.5805C41.4035 65.6272 28.0482 62.6641 20.2734 58.1009C20.2734 58.1009 27.0273 59.4701 35.1234 53.9178C35.1234 53.9178 28.1621 53.9178 25.74 46.9228C25.74 46.9228 27.9343 47.6073 30.2039 46.7715C30.2039 46.7715 23.0148 45.8581 22.1831 36.8114C22.1831 36.8114 24.4527 38.3317 26.7995 38.1049C26.7995 38.1049 19.3074 32.4791 23.6209 24.7974Z" fill="#FCCFB9"/>
<circle cx="41.992" cy="41.992" r="41.492" stroke="#FCCFB9"/>
</svg>
